<?xml version="1.0" encoding="UTF-8"?>
<!DOCTYPE svg PUBLIC "-//W3C//DTD SVG 1.1//EN" "http://www.w3.org/Graphics/SVG/1.1/DTD/svg11.dtd">
<svg xmlns="http://www.w3.org/2000/svg" xml:space="preserve" width="2048px" height="2048px" style="shape-rendering:geometricPrecision; text-rendering:geometricPrecision; image-rendering:optimizeQuality; fill-rule:evenodd; clip-rule:evenodd"
viewBox="0 0 2048 2048"
 xmlns:xlink="http://www.w3.org/1999/xlink">
 <defs>
  <style type="text/css">
   <![CDATA[
    .fil2 {fill:none}
    .fil1 {fill:#64B5F6}
    .fil0 {fill:#424242;fill-rule:nonzero}
   ]]>
  </style>
 </defs>
 <g id="Layer_x0020_1">
  <metadata id="CorelCorpID_0Corel-Layer"/>
  <path class="fil0" d="M503.569 471.568l291.611 0 206.195 -206.193 22.6252 -22.624 22.6252 22.624 206.195 206.193 291.611 0 32.0008 0 0 32.0008 0 291.611 206.193 206.195 22.624 22.6252 -22.624 22.6252 -206.193 206.195 0 291.611 0 32.0008 -32.0008 0 -291.611 0 -206.195 206.193 -22.6252 22.624 -22.6252 -22.624 -206.195 -206.193 -291.611 0 -32.0008 0 0 -32.0008 0 -291.611 -206.193 -206.195 -22.624 -22.6252 22.624 -22.6252 206.193 -206.195 0 -291.611 0 -32.0008 32.0008 0zm413.588 326.492l-119.097 0 0 119.097 0 13.2496 -9.3756 9.3756 -84.2174 84.2174 84.2174 84.2174 9.3756 9.3756 0 13.2496 0 119.097 119.097 0 13.2496 0 9.3756 9.3756 84.2174 84.2174 84.2174 -84.2174 9.3756 -9.3756 13.2496 0 119.097 0 0 -119.097 0 -13.2496 9.3756 -9.3756 84.2174 -84.2174 -84.2174 -84.2174 -9.3756 -9.3756 0 -13.2496 0 -119.097 -119.097 0 -13.2496 0 -9.3756 -9.3756 -84.2174 -84.2174 -84.2174 84.2174 -9.3756 9.3756 -13.2496 0z"/>
  <polygon class="fil1" points="1298.28,1024 1217.94,943.661 1217.94,830.06 1104.34,830.06 1024,749.722 943.661,830.06 830.06,830.06 830.06,943.661 749.722,1024 830.06,1104.34 830.06,1217.94 943.661,1217.94 1024,1298.28 1104.34,1217.94 1217.94,1217.94 1217.94,1104.34 "/>
 </g>
 <rect class="fil2" width="2048" height="2048"/>
</svg>
